<?xml version="1.0" encoding="utf-8"?>
<!-- Generator: Adobe Illustrator 20.1.0, SVG Export Plug-In . SVG Version: 6.00 Build 0)  -->
<!DOCTYPE svg PUBLIC "-//W3C//DTD SVG 1.1//EN" "http://www.w3.org/Graphics/SVG/1.1/DTD/svg11.dtd">
<svg version="1.1" id="Layer_1" xmlns="http://www.w3.org/2000/svg" xmlns:xlink="http://www.w3.org/1999/xlink" x="0px" y="0px"
	 viewBox="0 0 232.0502014 183" style="enable-background:new 0 0 232.0502014 183;" xml:space="preserve">
<style type="text/css">
	.st0{fill:#215732;}
	.st1{fill:#00B140;}
	.st2{fill:#FFE600;}
	.st3{fill:#E5B611;}
</style>
<rect x="105.4350433" y="87.7956085" class="st0" width="34.2424927" height="28.452364"/>
<g>
	<path d="M178.9967804,13.1374311c1.3746185,2.2636538,2.1668549,4.9183645,2.1668549,7.7546759v66.5966873
		c0,1.5893936,1.2884369,2.8779068,2.8778381,2.8779068s2.8779144-1.2885132,2.8779144-2.8779068V20.892107
		c0-2.7404385-0.5355072-5.3577805-1.5053101-7.7546759H178.9967804z"/>
	<path d="M102.113884,13.1374311c-0.0641937,0.1593075-0.1295013,0.3180132-0.1899261,0.4793205L71.5590744,94.6776352
		c-0.5575562,1.488327,0.1970825,3.1469269,1.685463,3.704483c0.332695,0.1246185,0.6736526,0.1836777,1.0090866,0.1836777
		c1.1655121,0,2.2625275-0.7133942,2.6954575-1.8692169l30.3648911-81.0608826
		c0.3279419-0.8754673,0.7335587-1.7102814,1.2090225-2.4982653H102.113884z"/>
</g>
<path class="st1" d="M214.5621185,77.6882095v-0.0059738c-10.3767242-7.3421631-23.0466614-11.6578217-36.725235-11.6578217
	c-28.4924011,0-52.6106644,18.7202606-60.7311783,44.5313797V89.7870941c0-8.1559601-6.6117325-14.7676392-14.7676086-14.7676392
	H14.7676353C6.6117024,75.019455,0,81.631134,0,89.7870941v41.9929047c0,8.1559296,6.6117024,14.7676544,14.7676353,14.7676544
	h87.5704651c4.8477859,0,9.1497192-2.3360901,11.842186-5.9437408v5.9437408h38.4820251h53.4368439h8.4629669v-2.6687775
	c3.8107758-2.6706085,6.3046417-7.0922089,6.3046417-12.098877V89.7870941
	C220.8667603,84.7804413,218.3728943,80.3588181,214.5621185,77.6882095z"/>
<path class="st0" d="M62.626091,146.5476379h126.675087c8.1559296,0,14.7676392-6.6116791,14.7676392-14.7676239v-9.2197113
	c0,8.1559448-6.6117096,14.7676239-14.7676392,14.7676239H62.626091V146.5476379z"/>
<g>
	<path d="M64.9788742,103.9531479H60.190033c-2.0165329,0-3.6512527,1.6347198-3.6512527,3.6512451v71.7443619
		c0,2.0165253,1.6347198,3.6512451,3.6512527,3.6512451h4.7888412c2.0165329,0,3.6512527-1.6347198,3.6512527-3.6512451V107.604393
		C68.630127,105.5878677,66.9954071,103.9531479,64.9788742,103.9531479z"/>
	<path d="M44.8963699,108.0510712l-4.1472588,2.3944244c-1.7463684,1.0082626-2.3447151,3.241333-1.3364525,4.9876938
		l35.8721771,62.1324387c1.0082626,1.7463684,3.241333,2.3447113,4.9877014,1.336441l4.1472626-2.3944092
		c1.7463684-1.0082703,2.3447113-3.241333,1.3364487-4.9877014l-35.8721771-62.1324387
		C48.8758049,107.6411514,46.6427383,107.0428085,44.8963699,108.0510712z"/>
	<path d="M29.5533733,121.6412277l-2.3944225,4.1472626c-1.0082645,1.7463684-0.4099159,3.9794388,1.3364506,4.9876938
		l62.1324387,35.8721771c1.7463608,1.0082703,3.9794312,0.4099274,4.9876938-1.336441l2.3944244-4.1472626
		c1.0082626-1.7463684,0.4099197-3.9794312-1.3364487-4.9877014l-62.1324348-35.8721771
		C32.7947083,119.2965164,30.5616379,119.8948593,29.5533733,121.6412277z"/>
	<path d="M23.0610275,141.0821533v4.7888489c0,2.0165253,1.6347198,3.6512451,3.6512489,3.6512451h71.7443542
		c2.0165253,0,3.6512451-1.6347198,3.6512451-3.6512451v-4.7888489c0-2.0165253-1.6347198-3.6512604-3.6512451-3.6512604H26.7122765
		C24.6957474,137.4308929,23.0610275,139.0656281,23.0610275,141.0821533z"/>
	<path d="M27.1589508,161.1646576l2.3944225,4.1472626c1.0082645,1.7463684,3.2413349,2.3447113,4.9876995,1.336441
		l62.1324348-35.8721771c1.7463684-1.008255,2.3447113-3.2413254,1.3364487-4.9876938l-2.3944244-4.1472626
		c-1.0082626-1.7463684-3.241333-2.3447113-4.9876938-1.3364487l-62.1324387,35.8721771
		C26.7490349,157.1852264,26.1506863,159.4182892,27.1589508,161.1646576z"/>
	<path d="M40.7491112,176.5076599l4.1472588,2.3944092c1.7463684,1.0082703,3.979435,0.4099274,4.9877014-1.336441
		l35.8721771-62.1324387c1.0082626-1.7463608,0.4099197-3.9794312-1.3364487-4.9876938l-4.1472626-2.3944244
		c-1.7463684-1.0082626-3.9794388-0.4099197-4.9877014,1.3364487l-35.8721771,62.1324387
		C38.4043961,173.2663269,39.0027428,175.4993896,40.7491112,176.5076599z"/>
	<circle cx="62.5844536" cy="143.4765778" r="36.0023575"/>
	<circle class="st2" cx="62.5844536" cy="143.4765778" r="19.4681187"/>
	<path class="st3" d="M62.5845032,124.0084457c-6.5303268,0-12.3052444,3.2186127-15.8369675,8.1524429
		c3.1896706-2.2831421,7.0941544-3.6313171,11.3157768-3.6313171c10.7519493,0,19.4681511,8.7161713,19.4681511,19.4681091
		c0,4.2216644-1.3481522,8.1261292-3.6312637,11.3157196c4.9337845-3.5316315,8.1523743-9.3065643,8.1523743-15.8368225
		C82.0525742,132.7246246,73.3363724,124.0084457,62.5845032,124.0084457z"/>
</g>
<path d="M183.2286072,79.0598984h-6.296936c-2.6515656,0-4.8010864,2.1495209-4.8010864,4.8010941v94.3379211
	c0,2.6515656,2.1495209,4.8010864,4.8010864,4.8010864h6.296936c2.6515808,0,4.8011017-2.1495209,4.8011017-4.8010864V83.8609924
	C188.0297089,81.2094193,185.880188,79.0598984,183.2286072,79.0598984z"/>
<path d="M156.8217773,84.4483261l-5.4533081,3.148468c-2.2963257,1.3257904-3.0831146,4.2620926-1.7573242,6.5584183
	l47.1689606,81.6990356c1.3257751,2.2963257,4.262085,3.0830994,6.5584106,1.7573242l5.4533081-3.148468
	c2.2963257-1.3257904,3.0831146-4.262085,1.7573242-6.5584259l-47.1689606-81.699028
	C162.0543976,83.9093246,159.118103,83.1225433,156.8217773,84.4483261z"/>
<path d="M136.6469879,102.3182678l-3.148468,5.4533081c-1.3257751,2.2963257-0.5390015,5.2326279,1.7573242,6.5584183
	l81.6990356,47.1689529c2.2963257,1.3257904,5.2326355,0.5390015,6.5584106-1.7573242l3.148468-5.4533081
	c1.3257904-2.2963257,0.5390167-5.2326202-1.757309-6.5584106l-81.6990356-47.1689606
	C140.9090881,99.2351608,137.9727783,100.0219421,136.6469879,102.3182678z"/>
<path d="M128.1100922,127.8814774v6.2969437c0,2.6515656,2.1495209,4.8010864,4.8011017,4.8010864h94.3379059
	c2.6515808,0,4.8011017-2.1495209,4.8011017-4.8010864v-6.2969437c0-2.6515656-2.1495209-4.8010941-4.8011017-4.8010941h-94.3379059
	C130.259613,123.0803833,128.1100922,125.2299118,128.1100922,127.8814774z"/>
<path d="M133.4985199,154.2883148l3.148468,5.4533081c1.3257904,2.2963257,4.2621002,3.0831146,6.5584259,1.7573242
	l81.6990356-47.1689529c2.2963257-1.3257904,3.0830994-4.2620926,1.757309-6.5584183l-3.148468-5.4533081
	c-1.3257751-2.2963257-4.262085-3.083107-6.5584106-1.7573242l-81.6990356,47.1689606
	C132.9595184,149.0556946,132.1727448,151.9919891,133.4985199,154.2883148z"/>
<path d="M151.3684692,174.4631042l5.4533081,3.148468c2.2963257,1.3257751,5.2326202,0.5390015,6.5584106-1.7573242
	l47.1689606-81.6990356c1.3257904-2.2963257,0.5390015-5.2326279-1.7573242-6.5584183l-5.4533081-3.148468
	c-2.2963257-1.3257828-5.2326355-0.5390015-6.5584106,1.7573242l-47.1689606,81.699028
	C148.2853546,170.2010193,149.0721436,173.1373138,151.3684692,174.4631042z"/>
<circle cx="180.0801392" cy="131.029953" r="47.3401337"/>
<circle class="st2" cx="180.0671692" cy="131.029953" r="24.8360939"/>
<path class="st1" d="M189.0445709,13.137434h-88.6205826c-3.6278,0-6.5687103-2.9409122-6.5687103-6.5687108V6.5687103
	C93.855278,2.9409118,96.7961884,0,100.4239883,0l88.6205826,0c3.6277924,0,6.5687103,2.9409118,6.5687103,6.5687103v0.0000129
	C195.6132812,10.1965218,192.6723633,13.137434,189.0445709,13.137434z"/>
<path d="M0.0000038,93.8472595H19.287775c1.5464458,0,2.8000889,1.2536469,2.8000889,2.8000946
	c0,1.5464401-1.253643,2.800087-2.8000889,2.800087H0.0000038L0.0000038,93.8472595z"/>
<path d="M0.0000038,105.0476151H19.287775c1.5464458,0,2.8000889,1.2536469,2.8000889,2.800087
	c0,1.5464478-1.253643,2.8000946-2.8000889,2.8000946H0.0000038L0.0000038,105.0476151z"/>
<path d="M0.0000038,116.2479706H19.287775c1.5464458,0,2.8000889,1.2536392,2.8000889,2.800087
	s-1.253643,2.800087-2.8000889,2.800087H0.0000038L0.0000038,116.2479706z"/>
<path class="st3" d="M180.1663666,106.1938477c-8.3309479,0-15.6981964,4.1060867-20.2037201,10.400322
	c4.0691681-2.9126663,9.0502319-4.632576,14.4358978-4.632576c13.7165985,0,24.8361359,11.1194839,24.8361359,24.8360748
	c0,5.3857117-1.7198792,10.3667603-4.6325226,14.4358215c6.2941742-4.5054169,10.400238-11.8726654,10.400238-20.203537
	C205.0023956,117.3133545,193.8828583,106.1938477,180.1663666,106.1938477z"/>
<path class="st2" d="M31.632988,86.9018707c0,1.6497879,1.3373909,2.9871826,2.9871826,2.9871826h82.4855347v-0.1019592
	c0-2.0873566-0.435463-4.0722961-1.2166595-5.872406H34.6201706C32.9703789,83.9146881,31.632988,85.2520752,31.632988,86.9018707z"
	/>
</svg>
